<svg xmlns="http://www.w3.org/2000/svg" viewBox="0 0 240 160"><rect width="240" height="160" rx="22" fill="#eef7ff"/><rect y="118" width="240" height="42" fill="#d9efc9"/><circle cx="68" cy="62" r="22" fill="#f3c79b"/><path d="M48 58 Q68 32 88 58" fill="#5b3827"/><rect x="52" y="82" width="34" height="45" rx="12" fill="#4f7fd6"/><line x1="51" y1="91" x2="32" y2="78" stroke="#f3c79b" stroke-width="9" stroke-linecap="round"/><line x1="86" y1="91" x2="104" y2="78" stroke="#f3c79b" stroke-width="9" stroke-linecap="round"/><circle cx="116" cy="64" r="15" fill="#334155"/><circle cx="146" cy="64" r="15" fill="#334155"/><circle cx="116" cy="64" r="9" fill="#bfe3ff"/><circle cx="146" cy="64" r="9" fill="#bfe3ff"/><rect x="127" y="59" width="8" height="10" fill="#334155"/><line x1="104" y1="77" x2="113" y2="72" stroke="#334155" stroke-width="6"/><line x1="104" y1="77" x2="149" y2="72" stroke="#334155" stroke-width="6"/><circle cx="196" cy="43" r="20" fill="#ffd95a"/><g stroke="#ffd95a" stroke-width="4"><line x1="196" y1="13" x2="196" y2="3"/><line x1="226" y1="43" x2="236" y2="43"/><line x1="217" y1="22" x2="225" y2="14"/></g></svg>